<svg xmlns="http://www.w3.org/2000/svg" width="89.14" height="107.82" viewBox="0 0 89.14 107.82"><defs><style>.a{fill:#6bbe45;}</style></defs><title>Asset 3</title><rect class="a" x="40.65" y="90.41" width="7.87" height="17.42"/><polygon class="a" points="67.99 68.47 60.1 68.47 66.2 80.52 22.98 80.52 43.12 40.71 39.1 33.06 11.33 87.95 77.84 87.95 67.99 68.47"/><polygon class="a" points="11.64 58.29 33.25 15.58 53.51 55.62 61.39 55.62 33.25 0 0 65.72 19.31 65.72 23.11 58.29 11.64 58.29"/><polygon class="a" points="55.88 0 46.21 19.13 50.23 26.76 55.88 15.58 77.49 58.29 37.48 58.29 33.94 65.72 89.14 65.72 55.88 0"/></svg>